<svg width="16" height="16" viewBox="0 0 16 16" fill="none" xmlns="http://www.w3.org/2000/svg">
<path fill-rule="evenodd" clip-rule="evenodd" d="M2.43451 2.43353C2.74693 2.12111 3.25346 2.12111 3.56588 2.43353L8.00022 6.86785L12.4345 2.43353C12.7469 2.12111 13.2535 2.12111 13.5659 2.43353C13.8783 2.74595 13.8783 3.25248 13.5659 3.5649L9.13159 7.99922L13.5659 12.4335C13.8783 12.746 13.8783 13.2525 13.5659 13.5649C13.2535 13.8773 12.7469 13.8773 12.4345 13.5649L8.00022 9.13059L3.56588 13.5649C3.25346 13.8773 2.74693 13.8773 2.43451 13.5649C2.12209 13.2525 2.12209 12.746 2.43451 12.4335L6.86885 7.99922L2.43451 3.56491C2.12209 3.25249 2.12209 2.74596 2.43451 2.43353Z" fill="#9A9CA5"/>
</svg>
